<?xml version="1.0" standalone="no"?>
<!DOCTYPE svg PUBLIC "-//W3C//DTD SVG 1.1//EN" "http://www.w3.org/Graphics/SVG/1.1/DTD/svg11.dtd">
<svg xmlns="http://www.w3.org/2000/svg" id="Calque_2" viewBox="0 0 220.49 193.95" width="220.49000549316406" height="193.9499969482422">
  <g id="Calque_1-2" data-name="Calque_1">
    <path d="M110.29,34.07c3.32-4.73,6.07-9.28,9.43-13.34,27.5-33.27,78.32-25.05,95.12,15.43,9.35,22.53,6.8,44.18-5.59,64.97-10.32,17.31-25.04,30.5-39.98,43.51-17.56,15.29-35.1,30.59-52.66,45.88-5.11,4.45-7.54,4.58-12.55.21-22.43-19.56-45.14-38.81-67.06-58.92-14.76-13.53-28.15-28.6-33.78-48.57C-3.84,58.16.37,35.06,19.11,16.34c24.72-24.7,63.39-20.82,84.31,7.72,2.32,3.17,4.45,6.48,6.87,10.02Z"/>
  </g>
</svg>