<?xml version="1.0" standalone="no"?>
<!DOCTYPE svg PUBLIC "-//W3C//DTD SVG 1.1//EN" "http://www.w3.org/Graphics/SVG/1.1/DTD/svg11.dtd">
<svg xmlns="http://www.w3.org/2000/svg" xmlns:xlink="http://www.w3.org/1999/xlink" id="Calque_2" data-name="Calque 2" viewBox="0 0 1920 1080" width="1920" height="1080">
  <defs>
    <style>
      .cls-1 {
        fill: none;
      }

      .cls-1, .cls-2, .cls-3 {
        stroke-width: 0px;
      }

      .cls-2 {
        fill: #000319;
      }

      .cls-3 {
        fill: url(#Nouveau_motif);
      }
    </style>
    <pattern id="Nouveau_motif" data-name="Nouveau motif" x="0" y="0" width="160" height="160" patternTransform="translate(0 0)" patternUnits="userSpaceOnUse" viewBox="0 0 160 160">
      <g>
        <rect class="cls-1" width="160" height="160"/>
        <path class="cls-2" d="m91.03,169.41c3.97-3.37,7.41-6.3,11.09-9.42-3.66-3.15-7.18-6.19-11.12-9.58,5.2-.36,9.85-.69,14.74-1.03-1.3-4.73-2.52-9.16-3.9-14.2,4.41,2.73,8.35,5.16,12.5,7.73,1.88-4.46,3.66-8.69,5.73-13.59,1.82,4.79,3.4,8.97,5.14,13.55,4.13-2.56,8.09-5.01,12.56-7.78-1.2,4.92-2.29,9.34-3.47,14.19,4.9.32,9.54.62,14.7.95-3.87,3.35-7.36,6.36-11.16,9.64,3.74,2.98,7.37,5.87,10.99,8.76-.06.2-.12.39-.18.59-4.66.22-9.32.44-14.31.68,1.17,4.74,2.3,9.34,3.56,14.47-4.4-2.79-8.36-5.3-12.57-7.96-1.74,4.6-3.42,9.04-5.38,14.24-1.94-5.12-3.62-9.53-5.4-14.21-4.12,2.65-8.07,5.18-12.52,8.05,1.22-5.1,2.33-9.7,3.48-14.5-4.73-.19-9.25-.38-14.5-.59Z"/>
        <path class="cls-2" d="m11.03,169.41c3.97-3.37,7.41-6.3,11.09-9.42-3.66-3.15-7.18-6.19-11.12-9.58,5.2-.36,9.85-.69,14.74-1.03-1.3-4.73-2.52-9.16-3.9-14.2,4.41,2.73,8.35,5.16,12.5,7.73,1.88-4.46,3.66-8.69,5.73-13.59,1.82,4.79,3.4,8.97,5.14,13.55,4.13-2.56,8.09-5.01,12.56-7.78-1.2,4.92-2.29,9.34-3.47,14.19,4.9.32,9.54.62,14.7.95-3.87,3.35-7.36,6.36-11.16,9.64,3.74,2.98,7.37,5.87,10.99,8.76-.06.2-.12.39-.18.59-4.66.22-9.32.44-14.31.68,1.17,4.74,2.3,9.34,3.56,14.47-4.4-2.79-8.36-5.3-12.57-7.96-1.74,4.6-3.42,9.04-5.38,14.24-1.94-5.12-3.62-9.53-5.4-14.21-4.12,2.65-8.07,5.18-12.52,8.05,1.22-5.1,2.33-9.7,3.48-14.5-4.73-.19-9.25-.38-14.5-.59Z"/>
        <path class="cls-2" d="m131.03,89.41c3.97-3.37,7.41-6.3,11.09-9.42-3.66-3.15-7.18-6.19-11.12-9.58,5.2-.36,9.85-.69,14.74-1.03-1.3-4.73-2.52-9.16-3.9-14.2,4.41,2.73,8.35,5.16,12.5,7.73,1.88-4.46,3.66-8.69,5.73-13.59,1.82,4.79,3.4,8.97,5.14,13.55,4.13-2.56,8.09-5.01,12.56-7.78-1.2,4.92-2.29,9.34-3.47,14.19,4.9.32,9.54.62,14.7.95-3.87,3.35-7.36,6.36-11.16,9.64,3.74,2.98,7.37,5.87,10.99,8.76-.06.2-.12.39-.18.59-4.66.22-9.32.44-14.31.68,1.17,4.74,2.3,9.34,3.56,14.47-4.4-2.79-8.36-5.3-12.57-7.96-1.74,4.6-3.42,9.04-5.38,14.24-1.94-5.12-3.62-9.53-5.4-14.21-4.12,2.65-8.07,5.18-12.52,8.05,1.22-5.1,2.33-9.7,3.48-14.5-4.73-.19-9.25-.38-14.5-.59Z"/>
        <path class="cls-2" d="m51.03,89.41c3.97-3.37,7.41-6.3,11.09-9.42-3.66-3.15-7.18-6.19-11.12-9.58,5.2-.36,9.85-.69,14.74-1.03-1.3-4.73-2.52-9.16-3.9-14.2,4.41,2.73,8.35,5.16,12.5,7.73,1.88-4.46,3.66-8.69,5.73-13.59,1.82,4.79,3.4,8.97,5.14,13.55,4.13-2.56,8.09-5.01,12.56-7.78-1.2,4.92-2.29,9.34-3.47,14.19,4.9.32,9.54.62,14.7.95-3.87,3.35-7.36,6.36-11.16,9.64,3.74,2.98,7.37,5.87,10.99,8.76-.06.2-.12.39-.18.59-4.66.22-9.32.44-14.31.68,1.17,4.74,2.3,9.34,3.56,14.47-4.4-2.79-8.36-5.3-12.57-7.96-1.74,4.6-3.42,9.04-5.38,14.24-1.94-5.12-3.62-9.53-5.4-14.21-4.12,2.65-8.07,5.18-12.52,8.05,1.22-5.1,2.33-9.7,3.48-14.5-4.73-.19-9.25-.38-14.5-.59Z"/>
        <path class="cls-2" d="m-28.97,89.41c3.97-3.37,7.41-6.3,11.09-9.42-3.66-3.15-7.18-6.19-11.12-9.58,5.2-.36,9.85-.69,14.74-1.03-1.3-4.73-2.52-9.16-3.9-14.2,4.41,2.73,8.35,5.16,12.5,7.73,1.88-4.46,3.66-8.69,5.73-13.59,1.82,4.79,3.4,8.97,5.14,13.55,4.13-2.56,8.09-5.01,12.56-7.78-1.2,4.92-2.29,9.34-3.47,14.19,4.9.32,9.54.62,14.7.95-3.87,3.35-7.36,6.36-11.16,9.64,3.74,2.98,7.37,5.87,10.99,8.76-.06.2-.12.39-.18.59-4.66.22-9.32.44-14.31.68,1.17,4.74,2.3,9.34,3.56,14.47-4.4-2.79-8.36-5.3-12.57-7.96-1.74,4.6-3.42,9.04-5.38,14.24-1.94-5.12-3.62-9.53-5.4-14.21-4.12,2.65-8.07,5.18-12.52,8.05,1.22-5.1,2.33-9.7,3.48-14.5-4.73-.19-9.25-.38-14.5-.59Z"/>
        <path class="cls-2" d="m91.03,9.41c3.97-3.37,7.41-6.3,11.09-9.42-3.66-3.15-7.18-6.19-11.12-9.58,5.2-.36,9.85-.69,14.74-1.03-1.3-4.73-2.52-9.16-3.9-14.2,4.41,2.73,8.35,5.16,12.5,7.73,1.88-4.46,3.66-8.69,5.73-13.59,1.82,4.79,3.4,8.97,5.14,13.55,4.13-2.56,8.09-5.01,12.56-7.78-1.2,4.92-2.29,9.34-3.47,14.19,4.9.32,9.54.62,14.7.95-3.87,3.35-7.36,6.36-11.16,9.64,3.74,2.98,7.37,5.87,10.99,8.76-.06.2-.12.39-.18.59-4.66.22-9.32.44-14.31.68,1.17,4.74,2.3,9.34,3.56,14.47-4.4-2.79-8.36-5.3-12.57-7.96-1.74,4.6-3.42,9.04-5.38,14.24-1.94-5.12-3.62-9.53-5.4-14.21-4.12,2.65-8.07,5.18-12.52,8.05,1.22-5.1,2.33-9.7,3.48-14.5-4.73-.19-9.25-.38-14.5-.59Z"/>
        <path class="cls-2" d="m11.03,9.41C15,6.05,18.45,3.12,22.12,0c-3.66-3.15-7.18-6.19-11.12-9.58,5.2-.36,9.85-.69,14.74-1.03-1.3-4.73-2.52-9.16-3.9-14.2,4.41,2.73,8.35,5.16,12.5,7.73,1.88-4.46,3.66-8.69,5.73-13.59,1.82,4.79,3.4,8.97,5.14,13.55,4.13-2.56,8.09-5.01,12.56-7.78-1.2,4.92-2.29,9.34-3.47,14.19,4.9.32,9.54.62,14.7.95-3.87,3.35-7.36,6.36-11.16,9.64,3.74,2.98,7.37,5.87,10.99,8.76-.06.2-.12.39-.18.59-4.66.22-9.32.44-14.31.68,1.17,4.74,2.3,9.34,3.56,14.47-4.4-2.79-8.36-5.3-12.57-7.96-1.74,4.6-3.42,9.04-5.38,14.24-1.94-5.12-3.62-9.53-5.4-14.21-4.12,2.65-8.07,5.18-12.52,8.05,1.22-5.1,2.33-9.7,3.48-14.5-4.73-.19-9.25-.38-14.5-.59Z"/>
      </g>
    </pattern>
  </defs>
  <g id="Calque_1-2" data-name="Calque 1">
    <rect class="cls-3" y="0" width="1920" height="1080"/>
  </g>
</svg>