<?xml version="1.0" standalone="no"?>
<!DOCTYPE svg PUBLIC "-//W3C//DTD SVG 1.1//EN" "http://www.w3.org/Graphics/SVG/1.1/DTD/svg11.dtd">
<svg xmlns="http://www.w3.org/2000/svg" xmlns:xlink="http://www.w3.org/1999/xlink" id="Calque_2" data-name="Calque 2" viewBox="0 0 1920 1080" width="1920" height="1080">
  <defs>
    <style>
      .cls-1 {
        fill: none;
      }

      .cls-2 {
        fill: url(#Nouveau_motif_12);
      }
    </style>
    <pattern id="Nouveau_motif_12" data-name="Nouveau motif 12" x="0" y="0" width="72" height="69.92" patternUnits="userSpaceOnUse" viewBox="0 0 72 69.92">
      <g>
        <rect class="cls-1" width="72" height="69.92"/>
        <g id="Calque_1-2" data-name="Calque 1-2">
          <path d="M67.79,96.36c.96-7.37,1.92-14.73,2.89-22.2h-12.32c1.25-10.3,2.48-20.48,3.73-30.74h15.89c-1.79,6.67-3.57,13.32-5.37,20.08h13.04c-5.94,11.08-11.79,22-17.65,32.92-.07-.02-.14-.04-.21-.06h0Z"/>
        </g>
        <g id="Calque_1-2-2" data-name="Calque 1-2">
          <path d="M-4.21,96.36c.96-7.37,1.92-14.73,2.89-22.2h-12.32c1.25-10.3,2.48-20.48,3.73-30.74H5.97c-1.79,6.67-3.57,13.32-5.37,20.08h13.04c-5.94,11.08-11.79,22-17.65,32.92-.07-.02-.14-.04-.21-.06h0Z"/>
        </g>
        <g id="Calque_1-2-3" data-name="Calque 1-2">
          <path d="M67.79,26.44c.96-7.37,1.92-14.73,2.89-22.2h-12.32c1.25-10.3,2.48-20.48,3.73-30.74h15.89c-1.79,6.67-3.57,13.32-5.37,20.08h13.04c-5.94,11.08-11.79,22-17.65,32.92-.07-.02-.14-.04-.21-.06h0Z"/>
        </g>
        <g id="Calque_1-2-4" data-name="Calque 1-2">
          <path d="M31.79,61.4c.96-7.37,1.92-14.73,2.89-22.2h-12.32c1.25-10.3,2.48-20.48,3.73-30.74h15.89c-1.79,6.67-3.57,13.32-5.37,20.08h13.04c-5.94,11.08-11.79,22-17.65,32.92-.07-.02-.14-.04-.21-.06h0Z"/>
        </g>
        <g id="Calque_1-2-5" data-name="Calque 1-2">
          <path d="M-4.21,26.44c.96-7.37,1.92-14.73,2.89-22.2h-12.32c1.25-10.3,2.48-20.48,3.73-30.74H5.97C4.19-19.83,2.41-13.18.6-6.42h13.04C7.7,4.66,1.85,15.58-4,26.5c-.07-.02-.14-.04-.21-.06h0Z"/>
        </g>
      </g>
    </pattern>
  </defs>
  <g id="Calque_5" data-name="Calque 5">
    <rect class="cls-2" width="1920" height="1080"/>
  </g>
</svg>