<?xml version="1.0" standalone="no"?>
<!DOCTYPE svg PUBLIC "-//W3C//DTD SVG 1.1//EN" "http://www.w3.org/Graphics/SVG/1.1/DTD/svg11.dtd">
<svg xmlns="http://www.w3.org/2000/svg" xmlns:xlink="http://www.w3.org/1999/xlink" id="Calque_2" data-name="Calque 2" viewBox="0 0 1920 1080" width="1920" height="1080">
  <defs>
    <style>
      .cls-1, .cls-2, .cls-3 {
        stroke-width: 0px;
      }

      .cls-2 {
        fill: none;
      }

      .cls-3 {
        fill: url(#Nouveau_motif_4);
      }
    </style>
    <pattern id="Nouveau_motif_4" data-name="Nouveau motif 4" x="0" y="0" width="160" height="157.9" patternTransform="translate(49 -183.2)" patternUnits="userSpaceOnUse" viewBox="0 0 160 157.9">
      <g>
        <rect class="cls-2" y="0" width="160" height="157.9"/>
        <g id="Calque_1-2" data-name="Calque 1-2">
          <path class="cls-1" d="m121.04,133.75c1.05-1.14,1.94-2.25,2.98-3.21,8.5-7.87,21.72-3.87,24.75,7.49,1.68,6.32.23,11.99-3.8,17.08-3.36,4.24-7.75,7.22-12.18,10.15-5.21,3.44-10.42,6.88-15.64,10.32-1.52,1-2.17.95-3.34-.39-5.27-6-10.62-11.93-15.73-18.06-3.44-4.12-6.47-8.61-7.25-14.12-.98-6.92.96-12.91,6.61-17.22,7.45-5.69,17.6-3.28,22.15,5.06.5.93.95,1.88,1.47,2.91h0Z"/>
        </g>
        <g id="Calque_1-2-2" data-name="Calque 1-2">
          <path class="cls-1" d="m41.04,133.75c1.05-1.14,1.94-2.25,2.98-3.21,8.5-7.87,21.72-3.87,24.75,7.49,1.68,6.32.23,11.99-3.8,17.08-3.36,4.24-7.75,7.22-12.18,10.15-5.21,3.44-10.42,6.88-15.64,10.32-1.52,1-2.17.95-3.34-.39-5.27-6-10.62-11.93-15.73-18.06-3.44-4.12-6.47-8.61-7.25-14.12-.98-6.92.96-12.91,6.61-17.22,7.45-5.69,17.6-3.28,22.15,5.06.5.93.95,1.88,1.47,2.91h0Z"/>
        </g>
        <g id="Calque_1-2-3" data-name="Calque 1-2">
          <path class="cls-1" d="m161.04,54.8c1.05-1.14,1.94-2.25,2.98-3.21,8.5-7.87,21.72-3.87,24.75,7.49,1.68,6.32.23,11.99-3.8,17.08-3.36,4.24-7.75,7.22-12.18,10.15-5.21,3.44-10.42,6.88-15.64,10.32-1.52,1-2.17.95-3.34-.39-5.27-6-10.62-11.93-15.73-18.06-3.44-4.12-6.47-8.61-7.25-14.12-.98-6.92.96-12.91,6.61-17.22,7.45-5.69,17.6-3.28,22.15,5.06.5.93.95,1.88,1.47,2.91h0Z"/>
        </g>
        <g id="Calque_1-2-4" data-name="Calque 1-2">
          <path class="cls-1" d="m81.04,54.8c1.05-1.14,1.94-2.25,2.98-3.21,8.5-7.87,21.72-3.87,24.75,7.49,1.68,6.32.23,11.99-3.8,17.08-3.36,4.24-7.75,7.22-12.18,10.15-5.21,3.44-10.42,6.88-15.64,10.32-1.52,1-2.17.95-3.34-.39-5.27-6-10.62-11.93-15.73-18.06-3.44-4.12-6.47-8.61-7.25-14.12-.98-6.92.96-12.91,6.61-17.22,7.45-5.69,17.6-3.28,22.15,5.06.5.93.95,1.88,1.47,2.91h0Z"/>
        </g>
        <g id="Calque_1-2-5" data-name="Calque 1-2">
          <path class="cls-1" d="m1.04,54.8c1.05-1.14,1.94-2.25,2.98-3.21,8.5-7.87,21.72-3.87,24.75,7.49,1.68,6.32.23,11.99-3.8,17.08-3.36,4.24-7.75,7.22-12.18,10.15-5.21,3.44-10.42,6.88-15.64,10.32-1.52,1-2.17.95-3.34-.39-5.27-6-10.62-11.93-15.73-18.06-3.44-4.12-6.47-8.61-7.25-14.12-.98-6.92.96-12.91,6.61-17.22,7.45-5.69,17.6-3.28,22.15,5.06.5.93.95,1.88,1.47,2.91h0Z"/>
        </g>
        <g id="Calque_1-2-6" data-name="Calque 1-2">
          <path class="cls-1" d="m121.04-24.15c1.05-1.14,1.94-2.25,2.98-3.21,8.5-7.87,21.72-3.87,24.75,7.49,1.68,6.32.23,11.99-3.8,17.08-3.36,4.24-7.75,7.22-12.18,10.15-5.21,3.44-10.42,6.88-15.64,10.32-1.52,1-2.17.95-3.34-.39-5.27-6-10.62-11.93-15.73-18.06-3.44-4.12-6.47-8.61-7.25-14.12-.98-6.92.96-12.91,6.61-17.22,7.45-5.69,17.6-3.28,22.15,5.06.5.93.95,1.88,1.47,2.91h0Z"/>
        </g>
        <g id="Calque_1-2-7" data-name="Calque 1-2">
          <path class="cls-1" d="m41.04-24.15c1.05-1.14,1.94-2.25,2.98-3.21,8.5-7.87,21.72-3.87,24.75,7.49,1.68,6.32.23,11.99-3.8,17.08-3.36,4.24-7.75,7.22-12.18,10.15-5.21,3.44-10.42,6.88-15.64,10.32-1.52,1-2.17.95-3.34-.39C28.53,11.29,23.18,5.36,18.07-.76c-3.44-4.12-6.47-8.61-7.25-14.12-.98-6.92.96-12.91,6.61-17.22,7.45-5.69,17.6-3.28,22.15,5.06.5.93.95,1.88,1.47,2.91h0Z"/>
        </g>
      </g>
    </pattern>
  </defs>
  <g id="Calque_3" data-name="Calque 3">
    <rect class="cls-3" width="1920" height="1080"/>
  </g>
</svg>