<?xml version="1.0" standalone="no"?>
<!DOCTYPE svg PUBLIC "-//W3C//DTD SVG 1.1//EN" "http://www.w3.org/Graphics/SVG/1.1/DTD/svg11.dtd">
<svg xmlns="http://www.w3.org/2000/svg" id="Calque_2" data-name="Calque 2" viewBox="0 0 15.23 14.17" width="15.229999542236328" height="14.170000076293945">
  <defs>
    <style>
      .cls-1 {
        fill: #fbba00;
        stroke-width: 0px;
      }
    </style>
  </defs>
  <g id="Calque_1-2" data-name="Calque 1">
    <g>
      <path class="cls-1" d="m.45,4.13s.31-.36.44-.67c.16-.38.12-.74.09-.97C.81,1.25-.14.68.1.24.18.09.39-.02.57,0c.4.06.56.83,1.3,2.33.11.22.26.51.54.59.08.02.13.04.2.04.12,0,.26-.03.57-.1.44-.1.83.03,1.05.38-.48-.09-.88.03-1.2.37-.25.26-.49.52-.72.79-.12.13-.24.25-.37.34-.23.16-.49.24-.81.15-.18-.05-.33-.07-.47-.02-.11.04-.1.09-.25.16-.09.04-.23.1-.32.04-.11-.07-.09-.29-.08-.31.12-.22.26-.45.44-.63Z"/>
      <path class="cls-1" d="m.41,5.44c.25-.15.47.05,1.05,0,.12,0,.23-.03.33-.07.32-.11.57-.34.77-.53.52-.5.48-.77.86-.88.41-.11.64.04.87-.12.12-.08.11-.17.17-.19.16-.05.54.45,1.48,2.6.33.74.92,1.83,1.92,2.91.97,1.05,1.49,1.47,2.24,1.81,2.21,1.02,4.53-.09,5.03.12.02,0,.07.03.09.08.18.38-1.35,1.61-2.88,2.3-.3.13-.98.44-1.85.59-2.66.48-4.94-.77-5.75-1.23C2.15,11.38.63,9.06.24,7.25c-.18-.81-.13-1.63.17-1.81Z"/>
    </g>
  </g>
</svg>