<?xml version="1.0" standalone="no"?>
<!DOCTYPE svg PUBLIC "-//W3C//DTD SVG 1.1//EN" "http://www.w3.org/Graphics/SVG/1.1/DTD/svg11.dtd">
<svg xmlns="http://www.w3.org/2000/svg" id="Calque_2" data-name="Calque 2" viewBox="0 0 206.94 207.07" width="206.94000244140625" height="207.07000732421875">
  <g id="Calque_1-2" data-name="Calque 1">
    <path d="M111.17,10.3c1.61,1.66,6.4,1.46,8.53.56,2.99-1.25,1.07-9.87,10.48-7.1,6.5,1.91.9,12.2,7.65,14.34,7.56,2.39,7.68-9.95,16.56-4.64,6.04,3.61-2.93,13.07,4.71,16.28,5.42,2.27,9.47-6.76,15.38-1.95,6.3,5.12-3.9,11.49.22,17.22,4.38,6.11,13.57-5.17,17.13,4.9,2.47,6.99-8.86,7.75-4.17,15.81,2.25,3.53,12.41-1.02,14.61,5.59,2.83,8.52-8.2,6.45-7.49,15.43.61,7.77,14.15,1.36,11.9,13.02-1.12,5.8-11.44,2.82-10.95,10.93.4,6.54,10.44,4.35,9.95,11.97-.58,8.94-11.85,2.66-13.76,9.27-2.5,8.65,10.49,9.35,4.72,17.66-3.46,4.98-13.63-1.96-15.71,5.29-1.77,6.17,6.92,8.13,2.87,14.8-4.29,7.09-13.58-4.29-17.88,3.05-2.93,5,4.75,11.6-1.56,15.4-7.66,4.61-10.58-8.48-17.48-2.51-4.87,4.21,3.31,12.95-6.01,14.97-8.48,1.84-6.47-7.52-12.48-7.45-9.75.11-3.36,11.23-10.43,13.45-9.76,3.06-6.27-9.64-14.51-9.64-8.01,0-4.64,10.87-12.86,10.08s-3.58-9.98-8.28-12.77c-8.95-5.31-7.69,8.97-16.29,6.37-9.15-2.77-.59-11.55-6.56-15.44-6.83-4.46-8.21,5.7-15.4,3.44-9.62-3.02,2.45-13.42-4.38-17.57-5.57-3.38-12.7,5.03-16.58-1.38-4.04-6.67,4.65-8.1,2.63-15.6-1.7-6.32-12.84.96-15.81-5.13-4.51-9.26,7.77-7.79,5.04-17.02-1.89-6.4-10.4-.88-13-6.96-4.23-9.88,10.6-7.24,9.07-15.95-1.27-7.21-12.83-2.65-10.8-13.18,1.35-7,15.07-1.48,11.77-12.78-1.1-3.78-8.79-4.09-7.36-10.69,2.21-10.17,17.43.85,15.33-12.26-.65-4.03-6.89-3.12-4.58-10.98,2.51-8.52,12.73,1.6,16.81-4.13,4.4-6.17-6.81-12.63,1.36-17.59,6.2-3.77,8.61,4.68,14.24,2.32,7.58-3.18-2.13-15.46,6.8-17.21,8.74-1.71,6.81,7.82,14.46,5.56,7.5-2.22.41-13.01,8.49-14.54,9.93-1.88,5.6,9.92,15.91,7.97,4.86-.92,2.31-12.47,10.62-11.48,6.79.81,4.91,8.01,7.07,10.24Z"/>
  </g>
</svg>