<?xml version="1.0" standalone="no"?>
<!DOCTYPE svg PUBLIC "-//W3C//DTD SVG 1.1//EN" "http://www.w3.org/Graphics/SVG/1.1/DTD/svg11.dtd">
<svg xmlns="http://www.w3.org/2000/svg" id="Calque_2" data-name="Calque 2" viewBox="0 0 216.45 206.47" width="216.4499969482422" height="206.47000122070312">
  <g id="Calque_1-2" data-name="Calque 1">
    <path d="M109.7,40.89c.06-.9.39-1.78,1-2.45,9.89-11.04,19-25.68,28.96-35.92.95-.98,1.3-1.89,2.97-1.51l2,51.87,51.86-12.96-28.93,44.87,47.6,17.74,1.28,2.21-48.88,17.98,28.92,44.86-51.87-12.96-2,51.87-33.44-39.89-34.37,39.9-3.01-52.87-50.85,13.96,27.9-44.39L0,102.75l48.87-17.98-27.92-44.87,50.86,12.96L74.82,0l34.88,40.89Z"/>
  </g>
</svg>